HIERARCHY
ROOT hip
{
  OFFSET 0 0 0
  CHANNELS 6 Xposition Yposition Zposition Zrotation Yrotation Xrotation
  JOINT abdomen
  {
    OFFSET 0 20.6881 -0.73152
    CHANNELS 3 Zrotation Xrotation Yrotation
    JOINT chest
    {
      OFFSET 0 11.7043 -0.48768
      CHANNELS 3 Zrotation Xrotation Yrotation
      JOINT neck
      {
        OFFSET 0 22.1894 -2.19456
        CHANNELS 3 Zrotation Xrotation Yrotation
        JOINT head
        {
          OFFSET -0.24384 7.07133 1.2192
          CHANNELS 3 Zrotation Xrotation Yrotation
          JOINT leftEye
          {
            OFFSET 4.14528 8.04674 8.04672
            CHANNELS 3 Zrotation Xrotation Yrotation
            End Site
            {
              OFFSET 1 0 0
            }
          }
          JOINT rightEye
          {
            OFFSET -3.6576 8.04674 8.04672
            CHANNELS 3 Zrotation Xrotation Yrotation
            End Site
            {
              OFFSET 1 0 0
            }
          }
        }
      }
      JOINT rCollar
      {
        OFFSET -2.68224 19.2634 -4.8768
        CHANNELS 3 Zrotation Xrotation Yrotation
        JOINT rShldr
        {
          OFFSET -8.77824 -1.95073 1.46304
          CHANNELS 3 Zrotation Xrotation Yrotation
          JOINT rForeArm
          {
            OFFSET -28.1742 -1.7115 0.48768
            CHANNELS 3 Zrotation Xrotation Yrotation
            JOINT rHand
            {
              OFFSET -22.5879 0.773209 7.07136
              CHANNELS 3 Zrotation Xrotation Yrotation
              JOINT rThumb1
              {
                OFFSET -1.2192 -0.487915 3.41376
                CHANNELS 3 Zrotation Xrotation Yrotation
                JOINT rThumb2
                {
                  OFFSET -3.37035 -0.52449 3.41376
                  CHANNELS 3 Zrotation Xrotation Yrotation
                  End Site
                  {
                    OFFSET -1.78271 -1.18214 1.43049
                  }
                }
              }
              JOINT rIndex1
              {
                OFFSET -7.75947 0.938293 5.60832
                CHANNELS 3 Zrotation Xrotation Yrotation
                JOINT rIndex2
                {
                  OFFSET -2.54057 -0.884171 1.56538
                  CHANNELS 3 Zrotation Xrotation Yrotation
                  End Site
                  {
                    OFFSET -1.62519 -0.234802 1.16502
                  }
                }
              }
              JOINT rMid1
              {
                OFFSET -8.24714 1.18213 3.41376
                CHANNELS 3 Zrotation Xrotation Yrotation
                JOINT rMid2
                {
                  OFFSET -3.10165 -0.590103 1.0647
                  CHANNELS 3 Zrotation Xrotation Yrotation
                  End Site
                  {
                    OFFSET -2.48547 -0.328903 0.83742
                  }
                }
              }
              JOINT rRing1
              {
                OFFSET -8.82822 0.546677 1.51678
                CHANNELS 3 Zrotation Xrotation Yrotation
                JOINT rRing2
                {
                  OFFSET -2.60934 -0.819778 -0.0198488
                  CHANNELS 3 Zrotation Xrotation Yrotation
                  End Site
                  {
                    OFFSET -2.33842 -0.294052 0.168128
                  }
                }
              }
              JOINT rPinky1
              {
                OFFSET -8.27202 -0.0477905 -0.4584
                CHANNELS 3 Zrotation Xrotation Yrotation
                JOINT rPinky2
                {
                  OFFSET -1.82734 -0.647385 -0.700984
                  CHANNELS 3 Zrotation Xrotation Yrotation
                  End Site
                  {
                    OFFSET -1.69225 -0.51767 -0.607171
                  }
                }
              }
            }
          }
        }
      }
      JOINT lCollar
      {
        OFFSET 2.68224 19.2634 -4.8768
        CHANNELS 3 Zrotation Xrotation Yrotation
        JOINT lShldr
        {
          OFFSET 8.77824 -1.95073 1.46304
          CHANNELS 3 Zrotation Xrotation Yrotation
          JOINT lForeArm
          {
            OFFSET 28.1742 -1.7115 0.48768
            CHANNELS 3 Zrotation Xrotation Yrotation
            JOINT lHand
            {
              OFFSET 22.5879 0.773209 7.07136
              CHANNELS 3 Zrotation Xrotation Yrotation
              JOINT lThumb1
              {
                OFFSET 1.2192 -0.487915 3.41376
                CHANNELS 3 Zrotation Xrotation Yrotation
                JOINT lThumb2
                {
                  OFFSET 3.37035 -0.52449 3.41376
                  CHANNELS 3 Zrotation Xrotation Yrotation
                  End Site
                  {
                    OFFSET 1.78271 -1.18214 1.43049
                  }
                }
              }
              JOINT lIndex1
              {
                OFFSET 7.75947 0.938293 5.60832
                CHANNELS 3 Zrotation Xrotation Yrotation
                JOINT lIndex2
                {
                  OFFSET 2.54057 -0.884171 1.56538
                  CHANNELS 3 Zrotation Xrotation Yrotation
                  End Site
                  {
                    OFFSET 1.62519 -0.234802 1.16502
                  }
                }
              }
              JOINT lMid1
              {
                OFFSET 8.24714 1.18213 3.41376
                CHANNELS 3 Zrotation Xrotation Yrotation
                JOINT lMid2
                {
                  OFFSET 3.10165 -0.590103 1.0647
                  CHANNELS 3 Zrotation Xrotation Yrotation
                  End Site
                  {
                    OFFSET 2.48547 -0.328903 0.83742
                  }
                }
              }
              JOINT lRing1
              {
                OFFSET 8.82822 0.546677 1.51678
                CHANNELS 3 Zrotation Xrotation Yrotation
                JOINT lRing2
                {
                  OFFSET 2.60934 -0.819778 -0.0198488
                  CHANNELS 3 Zrotation Xrotation Yrotation
                  End Site
                  {
                    OFFSET 2.33842 -0.294052 0.168128
                  }
                }
              }
              JOINT lPinky1
              {
                OFFSET 8.27202 -0.0477905 -0.4584
                CHANNELS 3 Zrotation Xrotation Yrotation
                JOINT lPinky2
                {
                  OFFSET 1.82734 -0.647385 -0.700984
                  CHANNELS 3 Zrotation Xrotation Yrotation
                  End Site
                  {
                    OFFSET 1.69225 -0.51767 -0.607171
                  }
                }
              }
            }
          }
        }
      }
    }
  }
  JOINT rButtock
  {
    OFFSET -8.77824 4.35084 1.2192
    CHANNELS 3 Zrotation Xrotation Yrotation
    JOINT rThigh
    {
      OFFSET 0 -1.70687 -2.19456
      CHANNELS 3 Zrotation Xrotation Yrotation
      JOINT rShin
      {
        OFFSET 0 -36.8199 0.73152
        CHANNELS 3 Zrotation Xrotation Yrotation
        JOINT rFoot
        {
          OFFSET 0.73152 -45.1104 -5.12064
          CHANNELS 3 Zrotation Xrotation Yrotation
          End Site
          {
            OFFSET -1.1221 -3.69964 12.103
          }
        }
      }
    }
  }
  JOINT lButtock
  {
    OFFSET 8.77824 4.35084 1.2192
    CHANNELS 3 Zrotation Xrotation Yrotation
    JOINT lThigh
    {
      OFFSET 0 -1.70687 -2.19456
      CHANNELS 3 Zrotation Xrotation Yrotation
      JOINT lShin
      {
        OFFSET 0 -36.8199 0.73152
        CHANNELS 3 Zrotation Xrotation Yrotation
        JOINT lFoot
        {
          OFFSET -0.73152 -45.1104 -5.12064
          CHANNELS 3 Zrotation Xrotation Yrotation
          End Site
          {
            OFFSET 1.1221 -3.69964 12.103
          }
        }
      }
    }
  }
}
MOTION
Frames:	5
Frame Time:	0.00833333
-10.1094 69.8631 -9.80337 17.4874 -34.8245 2.3618 -11.2037 19.7604 -2.75739 1.62511 -8.51651 -1.19556 -6.20442 -1.67122 -4.19009 7.53132 -21.1076 -5.173 -0.0 0.0 0.0 -0.0 0.0 0.0 1.36775e-13 -1.11338e-13 -9.76381e-13 98.0158 33.1243 -31.4349 -27.8616 -29.8433 66.9988 -0.477172 -19.2501 -2.81318 1.31266e-09 -7.74646e-10 4.15057e-09 2.21645e-09 -1.30613e-09 7.17756e-09 1.31267e-09 -7.74646e-10 4.15055e-09 7.73091 5.47488 0.417314 1.31265e-09 -7.74646e-10 4.15056e-09 2.90554 0.965183 0.102902 1.31266e-09 -7.74646e-10 4.15057e-09 10.2786 0.731801 0.0259123 1.31265e-09 -7.74646e-10 4.15058e-09 2.22167 -0.733487 -0.20892 1.36712e-13 -1.11302e-13 -9.7653e-13 -84.7393 47.2074 3.19473 26.7877 -44.5608 -92.5672 0.217434 -13.1659 1.88396 2.0007e-09 -7.48294e-09 -3.13612e-09 3.49577e-09 -1.2899e-08 -5.40635e-09 2.00069e-09 -7.48296e-09 -3.13611e-09 -7.73091 5.47488 -0.417314 2.0007e-09 -7.48295e-09 -3.13612e-09 -2.90554 0.965183 -0.102902 2.00069e-09 -7.48295e-09 -3.13611e-09 -10.2786 0.731801 -0.0259123 2.00071e-09 -7.48294e-09 -3.13611e-09 -2.22167 -0.733487 0.20892 -2.03217e-16 0.0 -3.88251e-19 -30.9836 -65.2709 -36.6337 -172.515 80.1908 172.69 -0.910721 5.09747 -2.82362 2.03217e-16 0.0 3.88251e-19 -3.60292 -29.0663 -5.6436 1.01772 58.7431 -1.34093 -1.55448 -22.03 -4.15857
-12.2357 70.1269 -6.93851 17.4951 -35.4138 2.2023 -10.898 19.5716 -3.48366 1.88016 -8.34552 -1.34965 -5.90826 -1.96619 -3.69866 7.21786 -20.786 -4.31772 -0.0 0.0 0.0 -0.0 0.0 0.0 1.60297e-13 -1.9233e-13 -1.03339e-12 98.7086 32.8821 -33.4723 -27.9108 -30.1026 67.4086 -0.465149 -19.0255 -2.77763 1.28371e-09 -1.14289e-09 3.59595e-09 2.17712e-09 -1.94898e-09 6.21698e-09 1.28372e-09 -1.14289e-09 3.59593e-09 7.73091 5.47488 0.417314 1.28371e-09 -1.14289e-09 3.59594e-09 2.90554 0.965183 0.102902 1.28372e-09 -1.14289e-09 3.59595e-09 10.2786 0.731801 0.0259123 1.28371e-09 -1.14289e-09 3.59595e-09 2.22167 -0.733487 -0.20892 1.60279e-13 -1.92294e-13 -1.03352e-12 -83.1318 47.9035 1.53913 26.3133 -45.695 -94.8268 0.243253 -13.9449 1.9995 1.98033e-09 -7.0354e-09 -2.8609e-09 3.45933e-09 -1.2127e-08 -4.9317e-09 1.98032e-09 -7.03541e-09 -2.86089e-09 -7.73091 5.47488 -0.417314 1.98033e-09 -7.03541e-09 -2.86089e-09 -2.90554 0.965183 -0.102902 1.98033e-09 -7.0354e-09 -2.86089e-09 -10.2786 0.731801 -0.0259123 1.98034e-09 -7.0354e-09 -2.8609e-09 -2.22167 -0.733487 0.20892 -2.03217e-16 0.0 -3.88251e-19 -33.0291 -67.5735 -38.8372 -168.193 84.1011 168.278 -0.890433 4.18878 -2.57029 2.03217e-16 0.0 3.88251e-19 -3.19178 -26.4456 -5.37517 0.985999 58.1895 -1.30773 -2.17961 -18.4975 -6.36073
-14.4703 70.4345 -4.05401 17.3473 -36.0391 2.0691 -10.5452 19.3629 -4.17 2.12571 -8.14624 -1.48979 -5.59756 -2.22578 -3.21268 6.99079 -20.4062 -3.47163 -0.0 0.0 0.0 -0.0 0.0 0.0 1.8672e-13 -3.29701e-13 -1.09725e-12 99.3292 32.6565 -35.414 -27.9599 -30.3743 67.8397 -0.438404 -18.5052 -2.6958 1.1867e-09 -1.90421e-09 2.20802e-09 2.03348e-09 -3.28063e-09 3.81494e-09 1.1867e-09 -1.90421e-09 2.20801e-09 7.73091 5.47488 0.417314 1.18669e-09 -1.90421e-09 2.20802e-09 2.90554 0.965183 0.102902 1.1867e-09 -1.90421e-09 2.20802e-09 10.2786 0.731801 0.0259123 1.18669e-09 -1.90421e-09 2.20803e-09 2.22167 -0.733487 -0.20892 1.86759e-13 -3.29668e-13 -1.09738e-12 -81.7481 48.402 0.250734 25.7265 -46.8767 -97.2839 0.276342 -14.8556 2.13579 1.90005e-09 -4.68416e-09 -1.69046e-09 3.31172e-09 -8.06682e-09 -2.91008e-09 1.90005e-09 -4.68415e-09 -1.69044e-09 -7.73091 5.47488 -0.417314 1.90005e-09 -4.68416e-09 -1.69045e-09 -2.90554 0.965183 -0.102902 1.90005e-09 -4.68415e-09 -1.69045e-09 -10.2786 0.731801 -0.0259123 1.90006e-09 -4.68415e-09 -1.69046e-09 -2.22167 -0.733487 0.20892 -2.03217e-16 0.0 -3.88251e-19 -33.6103 -69.296 -39.6791 -127.471 88.5811 127.467 -0.875534 3.34392 -2.60668 2.03217e-16 0.0 3.88251e-19 -2.58984 -23.8331 -5.04143 0.946342 57.5191 -1.27612 -2.53758 -13.7179 -9.11974
-16.8024 70.7805 -1.14215 17.0823 -36.6991 1.9233 -10.1822 19.167 -4.78594 2.33516 -7.91824 -1.61277 -5.30137 -2.44106 -2.75693 6.81359 -20.0006 -2.67965 -0.0 0.0 0.0 -0.0 0.0 0.0 2.26717e-13 -4.41378e-13 -1.14441e-12 99.8881 32.3566 -37.2009 -28.005 -30.6387 68.2639 -0.41175 -17.9528 -2.60976 9.93395e-10 -2.68989e-09 5.94143e-10 1.72698e-09 -4.65656e-09 1.02122e-09 9.93396e-10 -2.68989e-09 5.94131e-10 7.73091 5.47488 0.417314 9.93394e-10 -2.68989e-09 5.94143e-10 2.90554 0.965183 0.102902 9.934e-10 -2.68989e-09 5.94143e-10 10.2786 0.731801 0.0259123 9.93392e-10 -2.68989e-09 5.94146e-10 2.22167 -0.733487 -0.20892 2.268e-13 -4.4135e-13 -1.14454e-12 -80.5928 48.8106 -0.721392 25.0518 -47.9836 -99.7884 0.31025 -15.6906 2.26217 1.85704e-09 -1.95092e-09 -3.04314e-10 3.2268e-09 -3.34646e-09 -5.15097e-10 1.85704e-09 -1.95091e-09 -3.04288e-10 -7.73091 5.47488 -0.417314 1.85704e-09 -1.95092e-09 -3.043e-10 -2.90554 0.965183 -0.102902 1.85704e-09 -1.95092e-09 -3.04306e-10 -10.2786 0.731801 -0.0259123 1.85704e-09 -1.95092e-09 -3.04319e-10 -2.22167 -0.733487 0.20892 -2.03217e-16 0.0 -3.88251e-19 -33.0514 -70.4897 -39.4171 -12.8185 85.3091 12.7222 -0.863877 2.83812 -2.85328 2.03217e-16 0.0 3.88251e-19 -2.04935 -21.2538 -4.86039 0.90516 56.8221 -1.25199 -2.32716 -8.46331 -11.8507
-19.2105 71.158 1.80683 16.7742 -37.3897 1.6907 -9.8436 19.0167 -5.30163 2.48179 -7.66109 -1.71539 -5.04927 -2.6031 -2.35623 6.65316 -19.6029 -1.98546 -0.0 0.0 0.0 -0.0 0.0 0.0 2.9096e-13 -4.45286e-13 -1.15131e-12 100.384 31.9011 -38.7697 -28.0434 -30.8774 68.6511 -0.397153 -17.6324 -2.56024 6.7561e-10 -3.13122e-09 -6.38347e-10 1.19902e-09 -5.43226e-09 -1.11436e-09 6.75608e-10 -3.13121e-09 -6.38356e-10 7.73091 5.47488 0.417314 6.75609e-10 -3.13122e-09 -6.38344e-10 2.90554 0.965183 0.102902 6.75615e-10 -3.13122e-09 -6.38346e-10 10.2786 0.731801 0.0259123 6.75608e-10 -3.13122e-09 -6.38344e-10 2.22167 -0.733487 -0.20892 2.91051e-13 -4.45268e-13 -1.15146e-12 -79.651 49.232 -1.44237 24.3593 -48.9205 -102.127 0.3349 -16.2425 2.34657 1.94846e-09 -3.57428e-10 6.18023e-10 3.37843e-09 -5.93845e-10 1.07962e-09 1.94846e-09 -3.57412e-10 6.18052e-10 -7.73091 5.47488 -0.417314 1.94846e-09 -3.57425e-10 6.18039e-10 -2.90554 0.965183 -0.102902 1.94846e-09 -3.57424e-10 6.18031e-10 -10.2786 0.731801 -0.0259123 1.94846e-09 -3.5742e-10 6.18017e-10 -2.22167 -0.733487 0.20892 -2.03217e-16 0.0 -3.88251e-19 -31.9541 -71.1738 -38.5832 -5.38805 79.8509 5.19582 -0.840138 2.9459 -3.23118 2.03217e-16 0.0 3.88251e-19 -1.78107 -18.7365 -5.03472 0.868045 56.1889 -1.24045 -1.58266 -3.48609 -14.0299
